<svg width="142" height="56" viewBox="0 0 142 56" fill="none" xmlns="http://www.w3.org/2000/svg">
<path d="M132.715 0H9.95009C4.90408 0 0.813477 4.0906 0.813477 9.13661V46.8634C0.813477 51.9094 4.90408 56 9.95009 56H132.715C137.761 56 141.851 51.9094 141.851 46.8634V9.13661C141.851 4.0906 137.761 0 132.715 0Z" fill="#F7F7F7"/>
<path d="M36.3737 27.6268C36.3917 25.5863 37.4519 23.6967 39.1841 22.6179C38.079 21.0361 36.2905 20.0708 34.3618 20.0149C32.2877 19.7971 30.3692 21.2179 29.3425 21.2179C28.3159 21.2179 26.6981 20.0357 24.9869 20.0668C22.733 20.1357 20.6812 21.3842 19.5839 23.3542C17.2506 27.3987 18.9928 33.3409 21.2328 36.6076C22.3529 38.2047 23.6595 39.9884 25.381 39.9262C27.1025 39.8639 27.6729 38.8891 29.6951 38.8891C31.7174 38.8891 32.2877 39.9262 34.03 39.9262C35.7722 39.9262 36.9544 38.3187 38.0433 36.7113C38.8432 35.57 39.4591 34.3102 39.8685 32.978C37.733 32.0599 36.3558 29.9512 36.3737 27.6268ZM33.0759 17.8579C34.0531 16.6822 34.5331 15.1716 34.4137 13.6475C32.9195 13.808 31.5396 14.522 30.5455 15.649C29.5646 16.7632 29.0682 18.2225 29.1662 19.7038C30.6839 19.7223 32.1258 19.0415 33.0759 17.8579ZM54.4805 35.7676H49.5545L48.3723 39.2417H46.2982L50.9441 26.372H53.1012L57.7575 39.2417H55.6834L54.4805 35.7676ZM50.0834 34.1602H53.9723L52.0538 28.5083L50.0834 34.1602ZM67.8169 34.5543C67.8169 37.4684 66.2509 39.3454 63.8968 39.3454C62.6848 39.3977 61.5477 38.7589 60.962 37.6965V42.3528H58.9709V29.8565H60.8375V31.4224C61.4518 30.3566 62.6053 29.718 63.8346 29.7631C66.2405 29.7631 67.8169 31.6402 67.8169 34.5543ZM65.8361 34.5543C65.8361 32.6461 64.7991 31.4431 63.3576 31.4431C61.9161 31.4431 60.8894 32.7187 60.8894 34.5543C60.8894 36.3898 61.9264 37.6654 63.3576 37.6654C64.7887 37.6654 65.8361 36.4728 65.8361 34.5543ZM78.1458 34.5543C78.1458 37.4684 76.5902 39.3454 74.2362 39.3454C73.0345 39.3882 71.9113 38.7504 71.3324 37.6965V42.3528H69.3102V29.8565H71.1665V31.4224C71.779 30.3599 72.9275 29.7219 74.1532 29.7631C76.5799 29.7631 78.1458 31.6402 78.1458 34.5543ZM76.1651 34.5543C76.1651 32.6461 75.1902 31.4431 73.6865 31.4431C72.1828 31.4431 71.2287 32.7187 71.2287 34.5543C71.2287 36.3898 72.2139 37.6654 73.6865 37.6654C75.1591 37.6654 76.1651 36.4728 76.1651 34.5543ZM84.9799 35.6535C85.1251 36.9395 86.3592 37.7276 88.0911 37.7276C89.8229 37.7276 90.8807 36.898 90.8807 35.7469C90.8807 34.5957 90.1755 34.1394 88.5059 33.735L86.8362 33.3306C84.4718 32.7602 83.3725 31.6505 83.3725 29.8565C83.3725 27.6372 85.3118 26.1127 88.06 26.1127C90.8081 26.1127 92.6541 27.6372 92.7163 29.8565H90.7355C90.6214 28.5705 89.5533 27.7824 88.0081 27.7824C86.4629 27.7824 85.3844 28.5602 85.3844 29.7009C85.3844 30.6135 86.0688 31.1528 87.7281 31.5572L89.1488 31.9098C91.7933 32.532 92.8822 33.6002 92.8822 35.4772C92.8822 37.8935 90.9637 39.3973 87.9148 39.3973C85.0629 39.3973 83.134 37.9247 83.0095 35.5913L84.9799 35.6535ZM97.0511 27.6372V29.8565H98.8348V31.3809H97.0511V36.5661C97.0511 37.375 97.4037 37.7484 98.1919 37.7484C98.3889 37.7484 98.7 37.7484 98.8245 37.7484V39.2624C98.4826 39.3269 98.1353 39.3581 97.7874 39.3558C95.8793 39.3558 95.143 38.6402 95.143 36.815V31.3809H93.743V29.8565H95.1118V27.6372H97.0511ZM99.8615 34.5543C99.8615 31.5987 101.604 29.7424 104.321 29.7424C107.038 29.7424 108.77 31.5987 108.77 34.5543C108.77 37.5098 107.048 39.4076 104.321 39.4076C101.593 39.4076 99.8615 37.5098 99.8615 34.5543ZM106.81 34.5543C106.81 32.4802 105.876 31.3291 104.321 31.3291C102.765 31.3291 101.832 32.532 101.832 34.5543C101.832 36.5765 102.755 37.7691 104.321 37.7691C105.887 37.7691 106.81 36.5869 106.81 34.5543ZM110.356 29.8565H112.202V31.4535C112.461 30.4264 113.405 29.7211 114.463 29.7631C114.682 29.7621 114.901 29.7829 115.116 29.8253V31.6298C114.838 31.545 114.547 31.5064 114.256 31.5157C113.689 31.4908 113.139 31.7155 112.752 32.1304C112.365 32.5454 112.18 33.109 112.244 33.6728V39.2417H110.315L110.356 29.8565ZM124.045 36.4832C123.786 38.1943 122.127 39.3661 120.001 39.3661C117.273 39.3661 115.583 37.5306 115.583 34.5957C115.583 31.6609 117.284 29.7424 119.928 29.7424C122.573 29.7424 124.159 31.5261 124.159 34.3676V35.0313H117.522V35.1454C117.459 35.8497 117.703 36.5472 118.192 37.0581C118.681 37.569 119.367 37.8434 120.073 37.8106C121.014 37.9144 121.906 37.3683 122.241 36.4832H124.045ZM117.533 33.6831H122.231C122.262 33.0559 122.033 32.4435 121.596 31.9916C121.16 31.5396 120.556 31.2885 119.928 31.2979C119.293 31.2924 118.682 31.5416 118.232 31.9898C117.782 32.438 117.53 33.0479 117.533 33.6831ZM49.8449 16.6756C50.67 16.6136 51.4787 16.9295 52.0433 17.5344C52.6079 18.1393 52.8673 18.9679 52.7486 19.7868C52.7486 21.7675 51.7116 22.8979 49.8449 22.8979H47.6049V16.6756H49.8449ZM48.5693 21.9853H49.7308C50.3194 22.0289 50.8961 21.8034 51.2991 21.3722C51.7022 20.941 51.8881 20.3504 51.8049 19.766C51.8881 19.1817 51.7022 18.5911 51.2991 18.1598C50.8961 17.7286 50.3194 17.5032 49.7308 17.5467H48.5693V21.9853ZM58.0168 21.6016C57.7602 22.4829 56.9068 23.0519 55.9946 22.9497C55.3676 22.9831 54.7592 22.7306 54.3401 22.2631C53.921 21.7956 53.7362 21.1634 53.8375 20.5438C53.7565 19.925 53.9474 19.3014 54.3611 18.8341C54.7747 18.3667 55.3705 18.1015 55.9946 18.1067C57.2909 18.1067 58.0686 18.9882 58.0686 20.4608V20.7408H54.7397V20.7927C54.7073 21.1383 54.8233 21.4814 55.0586 21.7366C55.294 21.9918 55.6267 22.1349 55.9738 22.1305C56.4277 22.1817 56.8683 21.9573 57.0938 21.5601L58.0168 21.6016ZM54.7397 20.0979H57.0938C57.1173 19.7803 57.0057 19.4676 56.7866 19.2367C56.5674 19.0057 56.261 18.8778 55.9427 18.8845C55.621 18.8817 55.3118 19.0089 55.0852 19.2374C54.8587 19.4659 54.7341 19.7762 54.7397 20.0979ZM61.0138 18.1067C62.0509 18.1067 62.7561 18.5942 62.8494 19.4134H61.999C61.9161 19.0712 61.5842 18.8534 61.0553 18.8534C60.5264 18.8534 60.1531 19.0919 60.1531 19.4653C60.1531 19.8386 60.3916 19.9112 60.8998 20.0357L61.6776 20.2119C62.559 20.4194 62.9739 20.8031 62.9739 21.4875C62.9739 22.369 62.1546 22.9497 61.045 22.9497C59.9353 22.9497 59.2094 22.452 59.1264 21.6223H60.0494C60.1635 21.9853 60.5057 22.2031 61.0864 22.2031C61.6672 22.2031 62.0716 21.9438 62.0716 21.5705C62.0716 21.1971 61.8435 21.1142 61.3768 21.0105L60.5679 20.8134C59.6761 20.606 59.2716 20.2119 59.2716 19.5171C59.2716 18.8223 59.9249 18.1067 61.0138 18.1067ZM67.2361 19.7038C67.1113 19.2137 66.6513 18.8851 66.1472 18.926C65.3798 18.926 64.9131 19.5171 64.9131 20.5127C64.9131 21.5083 65.3798 22.1305 66.1472 22.1305C66.6557 22.1831 67.1267 21.8574 67.2569 21.3631H68.1487C68.0244 22.3484 67.1349 23.0535 66.1472 22.9497C65.5155 22.9714 64.9066 22.7123 64.4843 22.2419C64.062 21.7716 63.8697 21.1384 63.959 20.5127C63.8562 19.8874 64.0448 19.2493 64.4712 18.7805C64.8976 18.3117 65.515 18.0635 66.1472 18.1067C67.1292 18.0209 68.0036 18.726 68.128 19.7038H67.2361ZM69.0406 21.5394C69.0406 20.6994 69.6732 20.2119 70.7828 20.1497L72.048 20.0771V19.7038C72.048 19.206 71.7161 18.926 71.0939 18.926C70.4717 18.926 70.2228 19.1231 70.1191 19.4549H69.2583C69.3517 18.646 70.1087 18.1379 71.1665 18.1379C72.2243 18.1379 72.9606 18.6668 72.9606 19.7038V22.8979H72.0791V22.2342H72.0065C71.7057 22.713 71.1714 22.9939 70.6065 22.9705C70.2034 23.0119 69.8018 22.8793 69.5027 22.6059C69.2036 22.3326 69.0355 21.9445 69.0406 21.5394ZM70.2954 16.1053C70.2954 16.5864 70.6854 16.9764 71.1665 16.9764C71.6476 16.9764 72.0376 16.5864 72.0376 16.1053H72.7843C72.691 16.9282 71.9947 17.5499 71.1665 17.5499C70.3383 17.5499 69.642 16.9282 69.5487 16.1053H70.2954ZM72.0895 21.1453V20.7408L70.9487 20.8134C70.3058 20.8134 70.0154 21.0727 70.0154 21.4875C70.0154 21.9023 70.3783 22.1512 70.8761 22.1512C71.4762 22.193 71.9984 21.7447 72.048 21.1453H72.0895ZM74.4436 18.1897H75.3251V18.9053H75.3976C75.6022 18.3995 76.108 18.0818 76.6525 18.1171C76.7902 18.1002 76.9295 18.1002 77.0673 18.1171V19.0193C76.8963 18.9869 76.7228 18.9696 76.5488 18.9675C76.2407 18.938 75.9345 19.041 75.707 19.2508C75.4794 19.4606 75.3518 19.7573 75.3562 20.0668V22.8253H74.4436V18.1897ZM80.9873 19.7038C80.8662 19.2054 80.399 18.8704 79.888 18.9156C79.1206 18.9156 78.6436 19.5068 78.6436 20.5023C78.6436 21.4979 79.1206 22.1201 79.888 22.1201C80.3928 22.1674 80.8577 21.8428 80.9873 21.3527H81.8895C81.7652 22.3336 80.8823 23.0371 79.8984 22.9394C79.266 22.9605 78.6566 22.7016 78.2327 22.2318C77.8089 21.762 77.6139 21.1292 77.6999 20.5023C77.6168 19.8808 77.8124 19.2543 78.2343 18.7904C78.6562 18.3265 79.2614 18.0725 79.888 18.0964C80.8795 18.0047 81.7651 18.7159 81.8895 19.7038H80.9873ZM82.8021 21.5394C82.8021 20.6994 83.4244 20.2119 84.5444 20.1497L85.8511 20.0771V19.7038C85.8511 19.206 85.5192 18.926 84.8866 18.926C84.254 18.926 84.0155 19.1231 83.9118 19.4549H83.0199C83.1236 18.646 83.8703 18.1379 84.9281 18.1379C85.9859 18.1379 86.7222 18.6668 86.7222 19.7038V22.8979H85.8511V22.2342H85.7785C85.4792 22.7146 84.9439 22.9961 84.3784 22.9705C83.9729 23.0186 83.5665 22.8886 83.2641 22.6142C82.9618 22.3397 82.7933 21.9476 82.8021 21.5394ZM85.8096 21.1453V20.7408L84.6688 20.8134C84.0258 20.8134 83.7251 21.0727 83.7251 21.4875C83.7251 21.9023 84.0984 22.1512 84.5962 22.1512C84.898 22.1952 85.2045 22.1119 85.4424 21.9211C85.6803 21.7304 85.8283 21.4494 85.8511 21.1453H85.8096ZM89.4081 18.9882V21.3942C89.4081 21.8816 89.6155 22.0994 90.0718 22.0994C90.1891 22.1106 90.3071 22.1106 90.4244 22.0994V22.8149C90.2587 22.8265 90.0924 22.8265 89.9266 22.8149H89.7192L89.5222 23.3127C90.0926 23.3127 90.414 23.5823 90.414 24.0386C90.414 24.4949 90.02 24.8787 89.377 24.8787C89.164 24.8792 88.9517 24.8549 88.7444 24.8061V24.2875C88.9145 24.3267 89.0884 24.3476 89.2629 24.3498C89.5844 24.3498 89.7607 24.246 89.7607 24.0594C89.7607 23.8727 89.5844 23.8001 89.1488 23.8001H88.8585V23.3853L89.1385 22.7009C88.6822 22.5349 88.4851 22.172 88.4851 21.5497V18.9882H87.7488V18.2105H88.4851V17.0282H89.4081V18.2105H90.4452V18.9882H89.4081ZM91.5237 16.8104C91.5234 16.6564 91.5867 16.509 91.6985 16.403C91.8104 16.2971 91.961 16.2419 92.1148 16.2504C92.4241 16.2504 92.6748 16.5012 92.6748 16.8104C92.6748 17.1197 92.4241 17.3704 92.1148 17.3704C91.961 17.379 91.8104 17.3238 91.6985 17.2178C91.5867 17.1119 91.5234 16.9645 91.5237 16.8104ZM91.6585 18.1897H92.5711V22.8668H91.6585V18.1897ZM96.3667 20.5231C96.3667 19.0505 97.1237 18.1171 98.3059 18.1171C98.901 18.0916 99.4578 18.4103 99.7371 18.9364H99.7993V16.3645H100.722V22.8668H99.8408V22.1201H99.7682C99.473 22.6458 98.9084 22.9621 98.3059 22.9394C97.1133 22.9394 96.3667 22.006 96.3667 20.5231ZM97.3208 20.5231C97.3208 21.5601 97.7874 22.1097 98.5652 22.1097C99.343 22.1097 99.82 21.5083 99.82 20.5334C99.82 19.5586 99.3326 18.9468 98.5652 18.9468C97.7978 18.9468 97.3208 19.5379 97.3208 20.5231ZM106.187 21.6016C105.928 22.5046 105.044 23.0792 104.113 22.9497C103.486 22.9831 102.878 22.7306 102.459 22.2631C102.04 21.7956 101.855 21.1634 101.956 20.5438C101.872 19.9261 102.06 19.3022 102.472 18.8344C102.884 18.3666 103.48 18.101 104.103 18.1067C105.41 18.1067 106.177 18.9882 106.177 20.4608V20.7408H102.942V20.7927C102.912 21.1394 103.031 21.4823 103.268 21.737C103.505 21.9918 103.838 22.1346 104.186 22.1305C104.637 22.183 105.076 21.9577 105.296 21.5601L106.187 21.6016ZM102.942 20.0979H105.306C105.329 19.7803 105.218 19.4676 104.999 19.2367C104.78 19.0057 104.473 18.8778 104.155 18.8845C103.832 18.8817 103.522 19.0087 103.294 19.2368C103.066 19.465 102.939 19.7752 102.942 20.0979ZM114.37 20.5231C114.37 22.006 113.623 22.9394 112.441 22.9394C111.85 22.9813 111.29 22.6728 111.01 22.1512H110.937V24.412H110.014V18.1897H110.896V18.9675H110.968C111.255 18.4298 111.821 18.1005 112.43 18.1171C113.623 18.1171 114.37 19.0401 114.37 20.5231ZM113.426 20.5231C113.426 19.5379 112.959 18.9468 112.182 18.9468C111.404 18.9468 110.916 19.5482 110.916 20.5334C110.916 21.5186 111.404 22.1097 112.171 22.1097C112.939 22.1097 113.426 21.5186 113.426 20.5231ZM119.555 21.6016C119.296 22.5046 118.411 23.0792 117.481 22.9497C116.854 22.9831 116.246 22.7306 115.826 22.2631C115.407 21.7956 115.222 21.1634 115.324 20.5438C115.243 19.925 115.434 19.3014 115.847 18.8341C116.261 18.3667 116.857 18.1015 117.481 18.1067C118.777 18.1067 119.555 18.9882 119.555 20.4608V20.7408H116.257V20.7927C116.228 21.1394 116.346 21.4823 116.583 21.737C116.82 21.9918 117.154 22.1346 117.502 22.1305C117.952 22.1802 118.389 21.9556 118.611 21.5601L119.555 21.6016ZM116.319 20.0979H118.673C118.697 19.7803 118.585 19.4676 118.366 19.2367C118.147 19.0057 117.841 18.8778 117.522 18.8845C117.202 18.8845 116.894 19.0127 116.668 19.2405C116.442 19.4684 116.317 19.777 116.319 20.0979Z" fill="#2E333C"/>
</svg>
