<svg width="142" height="56" viewBox="0 0 142 56" fill="none" xmlns="http://www.w3.org/2000/svg">
<path d="M132.253 0H9.48818C4.44216 0 0.351562 4.0906 0.351562 9.13661V46.8634C0.351562 51.9094 4.44216 56 9.48818 56H132.253C137.299 56 141.39 51.9094 141.39 46.8634V9.13661C141.39 4.0906 137.299 0 132.253 0Z" fill="#F7F7F7"/>
<path fill-rule="evenodd" clip-rule="evenodd" d="M69.5639 30.4165C67.7761 30.4165 66.1646 31.494 65.4814 33.1461C64.7982 34.7982 65.1781 36.6991 66.4437 37.9618C67.7093 39.2245 69.6112 39.5999 71.2617 38.9128C72.9122 38.2257 73.9859 36.6117 73.9817 34.8239C73.9987 33.648 73.5384 32.5155 72.7058 31.6849C71.8733 30.8544 70.7397 30.3967 69.5639 30.4165ZM69.7039 37.4995C68.6079 37.5761 67.5766 36.9751 67.103 35.9838C66.6294 34.9925 66.8099 33.8125 67.5582 33.0081C68.3064 32.2037 69.4704 31.9385 70.4933 32.3392C71.5161 32.74 72.1901 33.7253 72.1928 34.8239C72.2265 35.5111 71.9813 36.1828 71.5126 36.6866C71.044 37.1904 70.3917 37.4835 69.7039 37.4995Z" fill="#2E333C"/>
<path fill-rule="evenodd" clip-rule="evenodd" d="M43.14 19.7557H45.6082L46.2096 21.446H47.3193L44.9444 15.0164H43.9074L41.4807 21.446H42.5904L43.14 19.7557ZM44.3741 16.3542L45.2556 18.8016H43.4822L44.3741 16.3542Z" fill="#2E333C"/>
<path d="M50.8245 21.5809C51.3222 21.5862 51.8148 21.4799 52.266 21.2697C52.6935 21.0801 53.0728 20.7965 53.3756 20.4401L53.4378 20.3571L52.7327 19.7038L52.6601 19.7868C52.2086 20.3363 51.5356 20.6557 50.8245 20.6579C50.2106 20.6694 49.6187 20.4297 49.186 19.9942C48.2848 19.0234 48.2848 17.522 49.186 16.5512C49.6187 16.1157 50.2106 15.8759 50.8245 15.8875C51.4635 15.8619 52.0763 16.1432 52.4734 16.6445L52.546 16.7275L53.2512 16.043L53.2408 15.929C52.6487 15.2453 51.7803 14.8645 50.8763 14.8919C49.6333 14.8228 48.4538 15.4467 47.8115 16.5131C47.1691 17.5796 47.1691 18.9139 47.8115 19.9804C48.4538 21.0469 49.6333 21.6707 50.8763 21.6016L50.8245 21.5809Z" fill="#2E333C"/>
<path d="M58.3327 20.8757C58.7749 20.3651 59.005 19.7046 58.9757 19.0297V15.0164H57.9386V19.0608C57.9573 19.469 57.8285 19.8703 57.5756 20.1912C57.0015 20.7607 56.0757 20.7607 55.5016 20.1912C55.2487 19.8703 55.1199 19.469 55.1386 19.0608V15.0164H54.1015V19.0297C54.0747 19.7079 54.3127 20.3699 54.7653 20.8757C55.7445 21.816 57.2912 21.816 58.2705 20.8757H58.3327Z" fill="#2E333C"/>
<path d="M14.405 41.2765C14.5099 41.2416 14.6147 41.1891 14.737 41.1192L30.0633 32.7309L26.4283 29.1134L14.405 41.2765Z" fill="#2E333C"/>
<path d="M30.7448 32.3814L26.9526 28.5891L30.7448 24.7619L35.9526 27.6105C37.2283 28.3095 36.5817 29.1833 35.9526 29.5328L30.7448 32.3814Z" fill="#2E333C"/>
<path d="M30.0633 24.3949L14.737 16.0415C14.5798 15.9541 14.3875 15.9017 14.1953 15.8668L26.4109 28.0649L30.0633 24.3949Z" fill="#2E333C"/>
<path d="M13.304 16.0241L25.9041 28.6066L13.3739 41.2765C13.0069 41.0493 12.8147 40.5425 12.8147 39.8959C12.7972 38.6552 12.6924 18.8551 12.6924 17.3697C12.6924 16.6707 12.9545 16.2338 13.304 16.0241Z" fill="#2E333C"/>
<path fill-rule="evenodd" clip-rule="evenodd" d="M116.5 30.3957C115.058 30.3095 113.701 31.0875 113.047 32.3765L114.769 33.0921C115.112 32.4658 115.788 32.0971 116.5 32.1484C116.997 32.0873 117.497 32.2289 117.887 32.5412C118.277 32.8535 118.525 33.3101 118.575 33.8076V33.9424C117.955 33.6143 117.264 33.4434 116.563 33.4447C114.706 33.4447 112.829 34.4817 112.829 36.3691C112.866 37.1777 113.229 37.937 113.834 38.4741C114.44 39.0113 115.237 39.2807 116.044 39.221C117.038 39.2781 117.984 38.7892 118.512 37.9454H118.575V38.9825H120.452V33.9839C120.431 31.6817 118.709 30.3957 116.5 30.3957ZM116.272 37.4995C115.629 37.4995 114.748 37.178 114.748 36.4002C114.748 35.3632 115.847 35.0106 116.822 35.0106C117.438 34.9939 118.047 35.1444 118.585 35.4462C118.443 36.6205 117.445 37.5028 116.262 37.4995H116.272Z" fill="#2E333C"/>
<path fill-rule="evenodd" clip-rule="evenodd" d="M59.909 30.4165C57.4691 30.4222 55.4958 32.4048 55.5016 34.8447C55.5073 37.2845 57.4898 39.2578 59.9297 39.2521C62.3696 39.2464 64.3429 37.2638 64.3372 34.8239C64.3542 33.6462 63.8925 32.5121 63.0577 31.6812C62.2229 30.8503 61.0866 30.3939 59.909 30.4165ZM60.0075 37.5202C58.9116 37.5969 57.8802 36.9958 57.4066 36.0045C56.9331 35.0132 57.1136 33.8332 57.8618 33.0288C58.6101 32.2245 59.774 31.9592 60.7969 32.36C61.8198 32.7608 62.4937 33.7461 62.4964 34.8447C62.5302 35.5319 62.2849 36.2036 61.8163 36.7074C61.3476 37.2112 60.6954 37.5043 60.0075 37.5202Z" fill="#2E333C"/>
<path fill-rule="evenodd" clip-rule="evenodd" d="M95.407 33.1854C94.8368 31.5659 93.3277 30.465 91.6114 30.4165C90.4648 30.4143 89.3684 30.8867 88.5826 31.7216C87.7968 32.5566 87.3916 33.6796 87.4632 34.8239C87.4378 35.9978 87.8907 37.1316 88.718 37.9648C89.5454 38.7979 90.6759 39.2589 91.8499 39.2417C93.3147 39.2553 94.6905 38.5402 95.5211 37.3336L94.0174 36.2965C93.5582 37.0537 92.7354 37.5143 91.8499 37.5099C90.927 37.5493 90.0745 37.018 89.7033 36.1721L95.604 33.735L95.407 33.1854ZM89.3921 34.658C89.3394 33.3309 90.3677 32.21 91.6944 32.1484C92.3812 32.1023 93.028 32.4749 93.3329 33.0921L89.3921 34.658Z" fill="#2E333C"/>
<path d="M125.015 36.2962L127.234 30.6758H129.38L124.06 42.9029H122.049L124.008 38.5369L120.565 30.6758H122.639L124.942 36.2962H125.015Z" fill="#2E333C"/>
<path d="M48.4185 31.775V33.6417H52.8986C52.8324 34.522 52.4664 35.3529 51.8615 35.9958C50.953 36.906 49.7033 37.3916 48.4185 37.3336C45.6694 37.3336 43.4407 35.105 43.4407 32.3558C43.4407 29.6066 45.6694 27.378 48.4185 27.378C49.6749 27.3595 50.8872 27.8407 51.7889 28.7158L53.1164 27.3987C51.8671 26.1648 50.1743 25.4847 48.4185 25.5113C45.9078 25.4136 43.5448 26.6973 42.2604 28.8569C40.976 31.0164 40.976 33.7056 42.2604 35.8651C43.5448 38.0246 45.9078 39.3084 48.4185 39.2107C50.2211 39.3078 51.9783 38.6239 53.2408 37.3336C54.3273 36.1399 54.9074 34.5707 54.8586 32.9573C54.8648 32.5676 54.8301 32.1782 54.7549 31.7958L48.4185 31.775Z" fill="#2E333C"/>
<path fill-rule="evenodd" clip-rule="evenodd" d="M104.481 26.0091H99.8456V38.9721H101.785V34.0565H104.481C105.988 34.1648 107.428 33.4224 108.215 32.1328C109.001 30.8432 109.001 29.2224 108.215 27.9328C107.428 26.6432 105.988 25.9009 104.481 26.0091ZM104.481 32.2313H101.785V27.8135H104.533C105.759 27.8135 106.752 28.8071 106.752 30.0328C106.752 31.2585 105.759 32.2521 104.533 32.2521L104.481 32.2313Z" fill="#2E333C"/>
<path d="M84.5909 26.0091H86.5302V38.9723H84.5909V26.0091Z" fill="#2E333C"/>
<path fill-rule="evenodd" clip-rule="evenodd" d="M81.4173 31.4017H81.3551C80.7639 30.7407 79.9188 30.3635 79.0321 30.3646C76.6781 30.4788 74.8283 32.4205 74.8283 34.7772C74.8283 37.1339 76.6781 39.0757 79.0321 39.1899C79.9217 39.2048 80.7723 38.8251 81.3551 38.1528H81.4173V38.7854C81.4173 40.4758 80.5151 41.378 79.0632 41.378C78.0742 41.3549 77.1973 40.7361 76.8439 39.8121L75.1535 40.5069C75.8035 42.0925 77.3496 43.1259 79.0632 43.1203C81.3343 43.1203 83.2114 41.7825 83.2114 38.5158V30.6861H81.4173V31.4017ZM79.1669 37.4995C77.6892 37.4995 76.4913 36.3016 76.4913 34.8239C76.4913 33.3462 77.6892 32.1483 79.1669 32.1483C79.8474 32.1713 80.4885 32.4732 80.9397 32.9832C81.3908 33.4932 81.6123 34.1664 81.5521 34.8446C81.6034 35.5167 81.3776 36.1806 80.9271 36.682C80.4766 37.1834 79.8406 37.4788 79.1669 37.4995Z" fill="#2E333C"/>
<path d="M109.801 26.0091H111.741V38.9723H109.801V26.0091Z" fill="#2E333C"/>
<path d="M61.0393 16.9554L61.0605 17.6509V21.4457H60.0538V15.0162H61.019L61.0499 15.0682L63.1443 18.729L65.2599 15.0162H66.2242V21.4457H65.2184V17.6509L65.2396 16.9554L63.4352 20.1288H62.8437L62.8129 20.0768L61.0393 16.9554Z" fill="#2E333C"/>
<path fill-rule="evenodd" clip-rule="evenodd" d="M70.5387 18.926H71.752C72.2853 18.935 72.8016 18.7381 73.1935 18.3764C73.584 18.0134 73.8058 17.5043 73.8058 16.9712C73.8058 16.438 73.584 15.929 73.1935 15.566C72.8016 15.2042 72.2853 15.0074 71.752 15.0164H69.5224V21.446H70.5594L70.5387 18.926ZM70.5387 15.9912H71.7728C72.0475 15.9783 72.3136 16.0885 72.4987 16.2919C72.8717 16.6679 72.8717 17.2744 72.4987 17.6504C72.3111 17.8503 72.0467 17.9599 71.7728 17.9512H70.5387V15.9912Z" fill="#2E333C"/>
<path d="M75.6094 20.4717H78.4408V21.4457H74.6036V15.0162H78.4408V15.9911H75.6094V17.7541H78.1613V18.7087H75.6094V20.4717Z" fill="#2E333C"/>
</svg>
