<svg width="94" height="16" viewBox="0 0 94 16" fill="none" xmlns="http://www.w3.org/2000/svg">
<path d="M28.947 10.7699C28.6002 10.8965 28.2646 10.9901 27.94 11.0507C27.6158 11.111 27.2417 11.1411 26.8179 11.1411C25.6739 11.1411 24.8212 10.7974 24.26 10.1099C23.7045 9.41666 23.4268 8.5255 23.4268 7.43636C23.4268 6.34722 23.7018 5.46445 24.2519 4.78804C24.802 4.11163 25.6574 3.77314 26.8179 3.77257C27.2582 3.77257 27.6323 3.80016 27.94 3.85535C28.2481 3.91593 28.5837 3.99842 28.947 4.10281L28.8313 5.7698H28.3117L28.0228 4.63913C27.7148 4.54584 27.382 4.49919 27.0244 4.49919C26.2103 4.49919 25.6464 4.76869 25.3327 5.30772C25.0138 5.84674 24.8544 6.55643 24.8544 7.43678C24.8544 8.26736 25.0194 8.96581 25.3493 9.53214C25.6739 10.1042 26.2186 10.3902 26.9835 10.3902C27.3188 10.3902 27.6653 10.3407 28.0228 10.2417L28.3117 9.24329H28.8561L28.947 10.7699V10.7699ZM32.7998 11.0259H29.5571V10.5139L30.5064 10.2835V3.62452L29.5575 3.49225V3.04681L31.414 2.59326H31.8594V10.2831L32.8002 10.5143V11.0259H32.7998ZM34.9203 4.43305C34.6785 4.43305 34.4696 4.35056 34.2935 4.18559C34.1175 4.02601 34.0294 3.83074 34.0294 3.59977C34.0294 3.35771 34.1176 3.15149 34.294 2.98111C34.4697 2.80475 34.6787 2.71657 34.9207 2.71657C35.1517 2.71657 35.3497 2.80475 35.5147 2.98111C35.6853 3.15149 35.7707 3.35771 35.7707 3.59977C35.7707 3.83074 35.6853 4.02601 35.5147 4.18559C35.3497 4.35056 35.1517 4.43305 34.9207 4.43305H34.9203ZM36.5378 11.0259H33.3037V10.5139L34.244 10.2835V6.25663L33.3037 6.12436V5.67892L35.1597 5.24158H35.5974V10.2831L36.5378 10.5143V11.0259V11.0259ZM39.3269 5.70367C39.5468 5.59927 39.8603 5.49759 40.2673 5.3986C40.6743 5.29392 41.043 5.24158 41.3732 5.24158C41.8076 5.24158 42.1596 5.33787 42.4292 5.53044C42.7043 5.72301 42.8418 6.03106 42.8418 6.4546V10.2831L43.7988 10.5719V11.0259H40.7046V10.5719L41.4884 10.2831V6.78441C41.4884 6.58644 41.4637 6.43796 41.4142 6.33897C41.3647 6.23458 41.2739 6.16589 41.142 6.13289C41.01 6.0999 40.8176 6.0834 40.5647 6.0834C40.1355 6.0834 39.7229 6.1356 39.3269 6.23999V10.2831L40.1188 10.5719V11.0259H37.0332V10.5719L37.9821 10.2831V6.23999L37.0332 6.12479V5.66228L38.8892 5.24158H39.3269V5.70367V5.70367ZM45.9031 4.43305C45.6665 4.43305 45.4574 4.35056 45.2759 4.18559C45.0999 4.02601 45.0118 3.83074 45.0118 3.59977C45.0118 3.35771 45.0999 3.15149 45.2759 2.98111C45.4574 2.80475 45.6665 2.71657 45.9031 2.71657C46.1341 2.71657 46.3348 2.80475 46.5052 2.98111C46.6758 3.15149 46.7612 3.35771 46.7612 3.59977C46.7612 3.83074 46.6758 4.02601 46.5052 4.18559C46.3345 4.35056 46.1338 4.43305 45.9031 4.43305ZM47.5202 11.0259H44.2861V10.5139L45.2345 10.2835V6.25663L44.2856 6.12436V5.67892L46.1421 5.24158H46.5879V10.2831L47.5202 10.5143V11.0259V11.0259ZM50.6639 11.1411C49.7781 11.1411 49.1235 10.8689 48.6999 10.3245C48.2764 9.78544 48.0646 9.0786 48.0646 8.20393C48.0646 7.31277 48.2737 6.59483 48.6918 6.05012C49.11 5.5111 49.7673 5.24158 50.6639 5.24158C51.0325 5.24158 51.3709 5.26917 51.6789 5.32436C51.987 5.38466 52.3033 5.4754 52.6278 5.59657L52.4047 7.14751H51.8274L51.5714 6.0915C51.3182 5.99252 51.0543 5.94303 50.7795 5.94303C50.2954 5.94303 49.9626 6.13559 49.7811 6.52073C49.6048 6.90558 49.5166 7.46111 49.5166 8.18729C49.5166 8.72631 49.5607 9.1527 49.6488 9.46644C49.737 9.7799 49.8801 10.0082 50.0781 10.1512C50.276 10.2886 50.54 10.3573 50.87 10.3573C51.4312 10.3573 51.9978 10.2693 52.5698 10.0932L52.6526 10.5553C52.3718 10.7368 52.0638 10.8798 51.7284 10.9845C51.3871 11.0889 51.0322 11.1411 50.6639 11.1411V11.1411ZM55.5236 6.02537C55.1993 6.02537 54.8886 6.07487 54.5913 6.17385L54.3272 7.14751H53.7581L53.5601 5.6627C54.3082 5.38196 55.0837 5.24158 55.8867 5.24158C56.4863 5.24158 56.9401 5.34057 57.2482 5.53854C57.5563 5.7368 57.7103 6.09435 57.7103 6.61119V10.1675L58.6592 10.4482V10.8855C58.1643 11.0175 57.7461 11.0835 57.4048 11.0835C57.1684 11.0835 56.9539 11.0285 56.7614 10.9184C56.5688 10.814 56.4451 10.66 56.3902 10.4563C56.0767 10.6819 55.7769 10.8525 55.4908 10.9683C55.2046 11.0835 54.8993 11.1411 54.5747 11.1411C54.168 11.1411 53.8462 11.0091 53.6096 10.7452C53.3786 10.4755 53.2631 10.1345 53.2631 9.72201C53.2631 9.35337 53.3731 9.01233 53.5929 8.69887C53.8128 8.38541 54.1951 8.17634 54.7398 8.07167L56.3569 7.75807V6.89193C56.3569 6.58388 56.2964 6.36102 56.1756 6.22335C56.049 6.09136 55.8317 6.02537 55.5236 6.02537V6.02537ZM55.4908 8.55038C55.1773 8.62178 54.9517 8.74267 54.8141 8.91305C54.6821 9.08372 54.6161 9.29847 54.6161 9.55732C54.6161 10.0412 54.8417 10.2831 55.2928 10.2831C55.4578 10.2831 55.6392 10.2474 55.8372 10.176C56.0352 10.1043 56.2086 10.0218 56.3573 9.92852V8.36905L55.4912 8.55038H55.4908ZM62.8179 9.25993L62.4715 10.3078L63.28 10.5553V11.0259H60.7964V10.5638L61.6215 10.2993L63.7997 3.94622L64.6167 3.79775L66.9515 10.2997L67.7852 10.5557V11.0259H64.8147V10.5553L65.5405 10.3326L65.1859 9.25993H62.8179V9.25993ZM64.9632 8.66601L63.9563 5.86068L63.0078 8.66601H64.9632V8.66601ZM67.9336 12.9647V12.4697L68.8825 12.2137V6.22335L67.8428 6.12436V5.66228C68.3269 5.54139 68.8659 5.4397 69.4598 5.35721C70.0486 5.28041 70.5987 5.24201 71.1102 5.24201C72.1774 5.24201 72.931 5.49218 73.3711 5.99252C73.8111 6.49314 74.0311 7.23028 74.0311 8.20393C74.0311 9.06751 73.8083 9.75501 73.3625 10.2664C72.9171 10.7728 72.2764 11.0259 71.4404 11.0259C71.1267 11.0259 70.8048 10.9709 70.4749 10.8608L70.6233 10.3245C70.761 10.3518 70.9068 10.3654 71.0607 10.3654C71.4845 10.3654 71.8064 10.2747 72.0262 10.0932C72.2461 9.90633 72.3919 9.65602 72.4636 9.34228C72.5296 9.03451 72.5625 8.64127 72.5625 8.16255C72.5625 7.49695 72.469 6.96063 72.2818 6.55359C72.0949 6.14114 71.7126 5.93492 71.1349 5.93492C70.8269 5.93492 70.5244 5.97901 70.2274 6.06719V12.1809L71.4404 12.445V12.9647H67.9332H67.9336ZM77.5213 5.24201C78.4895 5.24201 79.2019 5.51138 79.6584 6.05012C80.1096 6.59483 80.3351 7.31277 80.3351 8.20393C80.3351 9.0786 80.104 9.78544 79.6418 10.3245C79.1799 10.8689 78.473 11.1411 77.5213 11.1411C76.5863 11.1411 75.8904 10.8689 75.4336 10.3245C74.9771 9.77435 74.7488 9.06751 74.7488 8.20393C74.7488 7.31277 74.9744 6.59483 75.4255 6.05012C75.8766 5.5111 76.5752 5.24158 77.5213 5.24158V5.24201ZM78.8747 8.18729C78.8747 7.46679 78.7728 6.91127 78.5692 6.52073C78.3712 6.13019 78.0136 5.93492 77.4965 5.93492C77.0124 5.93492 76.6741 6.13019 76.4815 6.52073C76.2946 6.91127 76.2012 7.46679 76.2012 8.18729C76.2012 8.89129 76.3029 9.44411 76.5062 9.84574C76.7045 10.242 77.0566 10.4401 77.5627 10.4401C78.0633 10.4401 78.407 10.242 78.5939 9.84574C78.7811 9.4552 78.8747 8.90239 78.8747 8.18729V8.18729ZM84.1141 11.0259H80.8715V10.5139L81.8204 10.2835V3.62452L80.8715 3.49225V3.04681L82.7275 2.59326H83.1652V10.2831L84.1141 10.5143V11.0259V11.0259ZM87.728 11.0259H84.4853V10.5139L85.4342 10.2835V3.62452L84.4853 3.49225V3.04681L86.3418 2.59326H86.7872V10.2831L87.728 10.5143V11.0259V11.0259ZM91.0449 5.24158C92.0186 5.24158 92.7309 5.5111 93.1821 6.05012C93.6386 6.59483 93.8669 7.31277 93.8669 8.20393C93.8669 9.0786 93.6358 9.78544 93.1735 10.3245C92.7116 10.8689 92.0021 11.1411 91.0449 11.1411C90.1153 11.1411 89.4223 10.8689 88.9657 10.3245C88.5035 9.77435 88.2724 9.06751 88.2724 8.20393C88.2724 7.31277 88.498 6.59483 88.9491 6.05012C89.4002 5.5111 90.0988 5.24158 91.0449 5.24158V5.24158ZM92.3983 8.18729C92.3983 7.46679 92.2991 6.91127 92.1009 6.52073C91.8975 6.13019 91.5373 5.93492 91.0201 5.93492C90.536 5.93492 90.2004 6.13019 90.0132 6.52073C89.8263 6.91127 89.7329 7.46679 89.7329 8.18729C89.7329 8.89129 89.8319 9.44411 90.0299 9.84574C90.2281 10.242 90.583 10.4401 91.0944 10.4401C91.595 10.4401 91.9361 10.242 92.1175 9.84574C92.3047 9.4552 92.3983 8.90239 92.3983 8.18729Z" fill="#2E333C"/>
<path d="M9.0217 12.4015C7.91322 12.1566 7.17423 11.7103 6.82095 11.2606C6.72634 11.1441 6.65532 11.0104 6.61188 10.8668C6.58961 10.7949 6.57853 10.7201 6.57903 10.6449C6.58415 10.4943 6.64858 10.3309 6.78468 10.17C6.98948 9.92682 7.35983 9.68916 7.94138 9.50271C7.54052 9.40684 7.14846 9.27738 6.76932 9.11572C6.3738 9.35636 6.12634 9.62175 5.97572 9.87092C5.83747 10.0958 5.75877 10.3522 5.74703 10.6159C5.73636 10.9163 5.817 11.209 5.97402 11.4867C6.04015 11.604 6.11866 11.718 6.21124 11.8293C6.73263 12.4493 7.66148 12.9544 8.8425 13.2151C9.57935 13.3773 9.91087 13.7079 9.91343 13.9639C9.91471 14.0689 9.85796 14.1879 9.74362 14.3044C9.65828 14.391 9.54095 14.4759 9.38735 14.5536L9.35578 14.5681V13.8534C9.24314 13.7771 9.05327 13.6879 8.75332 13.6218C8.67439 13.6038 8.59972 13.5829 8.52378 13.5633V14.563C8.14788 14.3816 7.9721 14.1512 7.97423 13.9639C7.97551 13.8202 8.08388 13.655 8.30404 13.5078C8.00463 13.4227 7.71163 13.3165 7.42724 13.19C7.2297 13.4408 7.14351 13.7114 7.14138 13.9558C7.13626 14.4755 7.50575 15.1159 8.52378 15.4598C8.62874 15.4957 8.73839 15.5285 8.85743 15.5575H9.02938C9.13957 15.5308 9.24849 15.4991 9.35578 15.4624C9.56942 15.3929 9.77407 15.2984 9.96548 15.1808C10.0918 15.1019 10.2031 15.0161 10.2962 14.9273C10.6179 14.6189 10.7484 14.266 10.7463 13.9558C10.7407 13.3867 10.2851 12.6801 9.0217 12.4015V12.4015Z" fill="#1363DF"/>
<path d="M9.35595 11.8349V9.77451C9.18262 9.73554 9.00784 9.70338 8.832 9.67808C8.72901 9.66189 8.62617 9.64468 8.52352 9.62645V11.8315C8.65963 11.8771 8.80213 11.9176 8.94933 11.9543L9.03979 11.9304C9.15072 11.901 9.25483 11.8682 9.35595 11.8349ZM17.8799 2.60395V1.77195C15.1121 1.77195 11.994 0.195413 11.9629 0.179199L11.6117 0L11.4138 0.341328C11.1622 0.774997 10.8015 1.13524 10.3675 1.38623C9.93345 1.63722 9.4413 1.7702 8.93995 1.77195C7.92448 1.77195 6.97728 1.22367 6.46613 0.341328L6.26816 0L5.91659 0.179199C5.88501 0.195413 2.76779 1.77195 0 1.77195V2.60395C2.44736 2.60395 5.0432 1.50869 5.95755 1.08416C6.08572 1.25953 6.22906 1.42328 6.38592 1.57354C5.72373 1.96821 4.44587 2.61888 3.20725 2.61888V3.45088C4.8704 3.45088 6.50667 2.49728 7.10272 2.10986C7.5393 2.36177 8.02282 2.52164 8.52352 2.57962V7.92533C8.7104 7.968 8.89643 8.00384 9.07819 8.03072C9.17333 8.0448 9.26592 8.06016 9.35552 8.07594V2.57962C9.85639 2.52183 10.3401 2.36195 10.7767 2.10986C11.3719 2.49728 13.0082 3.4513 14.6722 3.4513V2.61888C13.4327 2.61888 12.1549 1.96821 11.4935 1.57312C11.6502 1.4228 11.7935 1.2592 11.9219 1.08416C12.8363 1.50869 15.4325 2.60395 17.8799 2.60395Z" fill="#1363DF"/>
<path d="M11.78 3.8929C11.7045 3.86517 11.027 3.6352 10.5022 3.93898C10.3119 4.04949 10.07 4.27306 9.99317 4.71424L10.8141 4.85631C10.8397 4.70613 10.8977 4.67242 10.919 4.66005C11.0547 4.58026 11.3448 4.62251 11.4831 4.67029C12.0779 4.91008 12.4145 5.4737 12.3398 6.10645C12.2519 6.85141 11.562 7.72608 9.94922 8.2048C10.4271 8.32768 10.8188 8.47999 11.1383 8.64938C12.8164 7.84853 13.1147 6.64234 13.1663 6.20373C13.284 5.2032 12.7332 4.27648 11.78 3.8929V3.8929Z" fill="#1363DF"/>
<path d="M9.01748 8.44246C6.62047 8.08406 5.65364 7.00033 5.54868 6.10689C5.47401 5.47457 5.8098 4.91009 6.38921 4.67671C6.50653 4.63782 6.62914 4.61724 6.75273 4.61569C6.83721 4.61569 6.91529 4.62849 6.96863 4.65964C6.99039 4.67244 7.04841 4.70657 7.07444 4.8559L7.89449 4.71382C7.81769 4.2735 7.57577 4.04908 7.3859 3.93943C7.18324 3.82167 6.95711 3.78369 6.75103 3.78369C6.5272 3.78571 6.30522 3.82448 6.09396 3.89846C5.15529 4.27692 4.60404 5.20279 4.7218 6.20417C4.79006 6.78657 5.29353 8.72705 8.89375 9.26593C10.6482 9.5279 11.2916 10.1504 11.3087 10.6441C11.3257 11.1356 10.7719 11.7564 9.67881 12.1634C10.0449 12.3025 10.3342 12.4813 10.5556 12.6818C11.566 12.1609 12.1676 11.4116 12.1407 10.6159C12.1236 10.1005 11.7836 8.85633 9.01748 8.44246V8.44246Z" fill="#1363DF"/>
</svg>
